<svg width="18" height="18" viewBox="0 0 18 18" fill="none" xmlns="http://www.w3.org/2000/svg">
<path d="M9 0.875C7.39303 0.875 5.82214 1.35152 4.486 2.24431C3.14985 3.1371 2.10844 4.40605 1.49348 5.8907C0.87852 7.37535 0.717618 9.00901 1.03112 10.5851C1.34463 12.1612 2.11846 13.6089 3.25476 14.7452C4.39106 15.8815 5.8388 16.6554 7.4149 16.9689C8.99099 17.2824 10.6247 17.1215 12.1093 16.5065C13.594 15.8916 14.8629 14.8502 15.7557 13.514C16.6485 12.1779 17.125 10.607 17.125 9C17.1229 6.84575 16.2662 4.78033 14.743 3.25704C13.2197 1.73376 11.1543 0.877068 9 0.875ZM8.84375 4.625C9.02917 4.625 9.21043 4.67998 9.3646 4.783C9.51877 4.88601 9.63893 5.03243 9.70989 5.20373C9.78085 5.37504 9.79941 5.56354 9.76324 5.7454C9.72707 5.92725 9.63778 6.0943 9.50667 6.22541C9.37555 6.35652 9.20851 6.44581 9.02665 6.48199C8.84479 6.51816 8.65629 6.49959 8.48499 6.42864C8.31368 6.35768 8.16726 6.23752 8.06425 6.08335C7.96124 5.92918 7.90625 5.74792 7.90625 5.5625C7.90625 5.31386 8.00503 5.0754 8.18084 4.89959C8.35666 4.72377 8.59511 4.625 8.84375 4.625ZM9.625 13.375H9C8.83424 13.375 8.67527 13.3092 8.55806 13.1919C8.44085 13.0747 8.375 12.9158 8.375 12.75V9C8.20924 9 8.05027 8.93415 7.93306 8.81694C7.81585 8.69973 7.75 8.54076 7.75 8.375C7.75 8.20924 7.81585 8.05027 7.93306 7.93306C8.05027 7.81585 8.20924 7.75 8.375 7.75H9C9.16576 7.75 9.32474 7.81585 9.44195 7.93306C9.55916 8.05027 9.625 8.20924 9.625 8.375V12.125C9.79076 12.125 9.94974 12.1908 10.0669 12.3081C10.1842 12.4253 10.25 12.5842 10.25 12.75C10.25 12.9158 10.1842 13.0747 10.0669 13.1919C9.94974 13.3092 9.79076 13.375 9.625 13.375Z" fill="#C5CDDA"/>
</svg>
