<svg width="32" height="32" viewBox="0 0 32 32" fill="none" xmlns="http://www.w3.org/2000/svg">
<path fill-rule="evenodd" clip-rule="evenodd" d="M0 0H2V30H32V32H0V0ZM20 23C20 23.2652 20.1054 23.5196 20.2929 23.7071C20.4804 23.8946 20.7348 24 21 24H29C29.2652 24 29.5196 23.8946 29.7071 23.7071C29.8946 23.5196 30 23.2652 30 23V15C30 14.7348 29.8946 14.4804 29.7071 14.2929C29.5196 14.1054 29.2652 14 29 14C28.7348 14 28.4804 14.1054 28.2929 14.2929C28.1054 14.4804 28 14.7348 28 15V20.2L20.774 11.366C20.6855 11.258 20.5755 11.1698 20.4508 11.1069C20.3262 11.044 20.1898 11.008 20.0504 11.001C19.911 10.994 19.7717 11.0163 19.6414 11.0664C19.5111 11.1166 19.3928 11.1934 19.294 11.292L14.12 16.466L6.808 6.412C6.64805 6.20861 6.41548 6.07513 6.15917 6.03963C5.90286 6.00412 5.64276 6.06935 5.43354 6.2216C5.22432 6.37386 5.08226 6.60129 5.03722 6.85609C4.99218 7.1109 5.04766 7.37324 5.192 7.588L13.192 18.588C13.2769 18.705 13.3862 18.8021 13.5123 18.8728C13.6383 18.9435 13.7782 18.986 13.9223 18.9974C14.0664 19.0088 14.2113 18.9889 14.3469 18.9389C14.4826 18.8889 14.6057 18.8102 14.708 18.708L19.926 13.488L26.89 22H21C20.7348 22 20.4804 22.1054 20.2929 22.2929C20.1054 22.4804 20 22.7348 20 23Z" fill="#5899E9"/>
</svg>
