<svg width="32" height="32" viewBox="0 0 32 32" fill="none" xmlns="http://www.w3.org/2000/svg">
<path fill-rule="evenodd" clip-rule="evenodd" d="M0 0H2V30H32V32H0V0ZM20 7C20 6.73478 20.1054 6.48043 20.2929 6.29289C20.4804 6.10536 20.7348 6 21 6H29C29.2652 6 29.5196 6.10536 29.7071 6.29289C29.8946 6.48043 30 6.73478 30 7V15C30 15.2652 29.8946 15.5196 29.7071 15.7071C29.5196 15.8946 29.2652 16 29 16C28.7348 16 28.4804 15.8946 28.2929 15.7071C28.1054 15.5196 28 15.2652 28 15V9.8L20.774 18.634C20.6855 18.742 20.5755 18.8302 20.4508 18.8931C20.3262 18.956 20.1898 18.992 20.0504 18.999C19.911 19.006 19.7717 18.9837 19.6414 18.9336C19.5111 18.8834 19.3928 18.8066 19.294 18.708L14.12 13.534L6.808 23.588C6.64805 23.7914 6.41548 23.9249 6.15917 23.9604C5.90286 23.9959 5.64276 23.9307 5.43354 23.7784C5.22432 23.6261 5.08226 23.3987 5.03722 23.1439C4.99218 22.8891 5.04766 22.6268 5.192 22.412L13.192 11.412C13.2769 11.295 13.3862 11.1979 13.5123 11.1272C13.6383 11.0565 13.7782 11.014 13.9223 11.0026C14.0664 10.9912 14.2113 11.0111 14.3469 11.0611C14.4826 11.1111 14.6057 11.1898 14.708 11.292L19.926 16.512L26.89 8H21C20.7348 8 20.4804 7.89464 20.2929 7.70711C20.1054 7.51957 20 7.26522 20 7Z" fill="#98BD2A"/>
</svg>
