<svg width="36" height="36" viewBox="0 0 36 36" fill="none" xmlns="http://www.w3.org/2000/svg">
<path d="M15.0342 27.8939V11.1334C15.0342 9.86896 16.0628 8.84033 17.3268 8.84033H19.5174C20.7819 8.84033 21.8105 9.86889 21.8105 11.1334V27.8939C21.8105 29.1583 20.782 30.1864 19.5174 30.1864H17.3268C16.0628 30.1864 15.0342 29.1581 15.0342 27.8939ZM17.3268 28.532H19.5174C19.8694 28.532 20.1556 28.2455 20.1556 27.8939V11.1334C20.1556 10.7815 19.8691 10.4953 19.5174 10.4953H17.3268C16.9749 10.4953 16.6887 10.7818 16.6887 11.1334V27.8939C16.6884 28.2458 16.9754 28.532 17.3268 28.532Z" fill="#98AB60"/>
<path d="M23.8262 27.9407V2.2931C23.8262 1.02863 24.8548 0 26.1188 0H28.3094C29.5739 0 30.6025 1.02856 30.6025 2.2931V27.9407C30.6025 29.2052 29.574 30.2333 28.3094 30.2333H26.1188C24.8548 30.2328 23.8262 29.2047 23.8262 27.9402V27.9407ZM26.1193 28.5789H28.31C28.6619 28.5789 28.9481 28.2924 28.9481 27.9407L28.9484 2.2931C28.9484 1.94117 28.6619 1.65495 28.3102 1.65495H26.1196C25.7676 1.65495 25.4814 1.94143 25.4814 2.2931V27.9407C25.4812 28.2921 25.7674 28.5784 26.1193 28.5784V28.5789Z" fill="#98AB60"/>
<path d="M6.24076 27.8939V19.2794C6.24076 18.015 7.26932 16.9863 8.53334 16.9863H10.724C11.9885 16.9863 13.0171 18.0149 13.0171 19.2794V27.8932C13.0171 29.1577 11.9885 30.1858 10.724 30.1858H8.53334C7.26939 30.1861 6.24076 29.1577 6.24076 27.8935V27.8939ZM8.53334 28.5321H10.724C11.0759 28.5321 11.3621 28.2456 11.3621 27.8939V19.2794C11.3621 18.9275 11.0757 18.6413 10.724 18.6413H8.53334C8.1814 18.6413 7.89519 18.9278 7.89519 19.2794V27.8932C7.89494 28.2454 8.18141 28.5317 8.53334 28.5317V28.5321Z" fill="#98AB60"/>
<path d="M35.1207 32.4858L33.6544 31.0196C33.3308 30.6969 32.8069 30.6977 32.4844 31.0201C32.3281 31.1764 32.2423 31.3841 32.2423 31.6054C32.2423 31.8261 32.3286 32.0343 32.4844 32.1901L32.5378 32.2435L3.7582 32.2438C3.40627 32.2438 3.12005 31.9573 3.12005 31.6056L3.1198 2.82535L3.17268 2.87823C3.48507 3.19063 4.03058 3.19063 4.34298 2.87874C4.49931 2.72241 4.58505 2.51474 4.58505 2.29348C4.58505 2.0722 4.4988 1.86454 4.34298 1.70821L2.87722 0.24298C2.55455 -0.0796911 2.02964 -0.0796911 1.70718 0.24298L0.241421 1.70874C-0.0804738 2.03063 -0.0804738 2.55586 0.241421 2.87826C0.564092 3.20093 1.08901 3.20093 1.41147 2.87826L1.46434 2.82538V31.605C1.46434 32.8695 2.49291 33.8981 3.75745 33.8981H32.537L32.4842 33.951C32.3271 34.1073 32.2408 34.315 32.2408 34.5362C32.2408 34.757 32.3271 34.9652 32.4829 35.1205C32.6392 35.2768 32.8469 35.363 33.0681 35.363C33.2889 35.363 33.4971 35.2768 33.6542 35.121L35.1186 33.6552C35.2757 33.4989 35.362 33.2912 35.362 33.0705C35.3622 32.85 35.276 32.6413 35.1202 32.4855L35.1207 32.4858Z" fill="#98AB60"/>
</svg>
