<svg width="36" height="36" viewBox="0 0 36 36" fill="none" xmlns="http://www.w3.org/2000/svg">
<path d="M21.8095 27.8939V11.1334C21.8095 9.86896 20.781 8.84033 19.517 8.84033H17.3263C16.0618 8.84033 15.0332 9.86889 15.0332 11.1334V27.8939C15.0332 29.1583 16.0618 30.1864 17.3263 30.1864H19.517C20.7809 30.1864 21.8095 29.1581 21.8095 27.8939ZM19.517 28.532H17.3263C16.9744 28.532 16.6882 28.2455 16.6882 27.8939V11.1334C16.6882 10.7815 16.9746 10.4953 17.3263 10.4953H19.517C19.8689 10.4953 20.1551 10.7818 20.1551 11.1334V27.8939C20.1554 28.2458 19.8684 28.532 19.517 28.532Z" fill="#7EA4D1"/>
<path d="M13 27.8768V4.12371C13 2.95264 11.9375 2 10.6318 2H8.36879C7.06258 2 6 2.95258 6 4.12371V27.8768C6 29.0478 7.06251 30 8.36879 30H10.6318C11.9374 29.9995 13 29.0474 13 27.8763V27.8768ZM10.6312 28.4678H8.36825C8.0047 28.4678 7.70904 28.2025 7.70904 27.8768L7.70877 4.12371C7.70877 3.79778 8.00471 3.53271 8.36798 3.53271H10.6309C10.9945 3.53271 11.2902 3.79802 11.2902 4.12371V27.8768C11.2904 28.2022 10.9948 28.4673 10.6312 28.4673V28.4678Z" fill="#7EA4D1"/>
<path d="M30.6025 27.8939V19.2794C30.6025 18.015 29.5739 16.9863 28.3099 16.9863H26.1193C24.8548 16.9863 23.8262 18.0149 23.8262 19.2794V27.8932C23.8262 29.1577 24.8547 30.1858 26.1193 30.1858H28.3099C29.5739 30.1861 30.6025 29.1577 30.6025 27.8935V27.8939ZM28.3099 28.5321H26.1193C25.7673 28.5321 25.4811 28.2456 25.4811 27.8939V19.2794C25.4811 18.9275 25.7676 18.6413 26.1193 18.6413H28.3099C28.6619 18.6413 28.9481 18.9278 28.9481 19.2794V27.8932C28.9483 28.2454 28.6619 28.5317 28.3099 28.5317V28.5321Z" fill="#7EA4D1"/>
<path d="M35.1207 32.4858L33.6544 31.0196C33.3308 30.6969 32.8069 30.6977 32.4844 31.0201C32.3281 31.1764 32.2423 31.3841 32.2423 31.6054C32.2423 31.8261 32.3286 32.0343 32.4844 32.1901L32.5378 32.2435L3.7582 32.2438C3.40627 32.2438 3.12005 31.9573 3.12005 31.6056L3.1198 2.82535L3.17268 2.87823C3.48507 3.19063 4.03058 3.19063 4.34298 2.87874C4.49931 2.72241 4.58505 2.51474 4.58505 2.29348C4.58505 2.0722 4.4988 1.86454 4.34298 1.70821L2.87722 0.24298C2.55455 -0.0796911 2.02964 -0.0796911 1.70718 0.24298L0.241421 1.70874C-0.0804738 2.03063 -0.0804738 2.55586 0.241421 2.87826C0.564092 3.20093 1.08901 3.20093 1.41147 2.87826L1.46434 2.82538V31.605C1.46434 32.8695 2.49291 33.8981 3.75745 33.8981H32.537L32.4842 33.951C32.3271 34.1073 32.2408 34.315 32.2408 34.5362C32.2408 34.757 32.3271 34.9652 32.4829 35.1205C32.6392 35.2768 32.8469 35.363 33.0681 35.363C33.2889 35.363 33.4971 35.2768 33.6542 35.121L35.1186 33.6552C35.2757 33.4989 35.362 33.2912 35.362 33.0705C35.3622 32.85 35.276 32.6413 35.1202 32.4855L35.1207 32.4858Z" fill="#7EA4D1"/>
</svg>
